<svg width="444" height="128" viewBox="0 0 444 128" fill="none" xmlns="http://www.w3.org/2000/svg">
<style>
    path {
        color: red;
    }

    @media (prefers-color-scheme: dark) {
        path {
            color: white;
        }
    }
</style>

<path d="M149.878 79.698C148.39 80.4007 146.985 80.8967 145.662 81.186C144.339 81.5167 142.934 81.682 141.446 81.682C137.354 81.682 134.399 80.442 132.58 77.962C130.761 75.482 129.852 71.3693 129.852 65.624C129.852 61.5733 130.327 58.37 131.278 56.014C132.229 53.658 133.779 51.9633 135.928 50.93C138.077 49.8553 141.012 49.318 144.732 49.318L155.644 50V94.516H149.878V79.698ZM142.748 76.474C144.732 76.474 146.778 76.102 148.886 75.358L149.878 74.986V54.712C147.646 54.464 145.931 54.34 144.732 54.34C142.417 54.34 140.599 54.7327 139.276 55.518C137.953 56.3033 137.023 57.5227 136.486 59.176C135.949 60.788 135.68 62.958 135.68 65.686C135.68 69.6127 136.217 72.4027 137.292 74.056C138.367 75.668 140.185 76.474 142.748 76.474ZM174.012 81.682C171.325 81.682 169.258 81.186 167.812 80.194C166.365 79.1607 165.352 77.5487 164.774 75.358C164.195 73.126 163.906 70.0673 163.906 66.182V50H169.672V66.182C169.672 69.034 169.816 71.1833 170.106 72.63C170.395 74.0353 170.932 75.0273 171.718 75.606C172.544 76.1847 173.784 76.474 175.438 76.474C176.802 76.474 178.083 76.3087 179.282 75.978C180.522 75.6473 181.844 75.172 183.25 74.552V50H189.016V81H183.25V78.954C181.514 79.946 179.943 80.6487 178.538 81.062C177.174 81.4753 175.665 81.682 174.012 81.682ZM204.583 81.682C201.648 81.682 199.416 80.8553 197.887 79.202C196.357 77.5487 195.593 75.172 195.593 72.072C195.593 69.0133 196.378 66.7813 197.949 65.376C199.519 63.9293 202.02 63.0407 205.451 62.71L214.255 61.904V59.486C214.255 57.6673 213.862 56.3653 213.077 55.58C212.291 54.7533 211.134 54.34 209.605 54.34C206.133 54.34 202.123 54.588 197.577 55.084L197.391 50.868C201.772 49.8347 205.843 49.318 209.605 49.318C213.242 49.318 215.887 50.1447 217.541 51.798C219.194 53.41 220.021 55.9727 220.021 59.486V74.428C220.103 75.2547 220.372 75.8953 220.827 76.35C221.323 76.7633 222.087 77.0527 223.121 77.218L222.935 81.682C221.157 81.682 219.649 81.4753 218.409 81.062C217.169 80.69 216.073 80.0907 215.123 79.264C211.609 80.876 208.096 81.682 204.583 81.682ZM205.637 76.846C208.158 76.846 210.597 76.4533 212.953 75.668L214.255 75.234V66.12L206.195 66.864C204.583 67.0293 203.384 67.5253 202.599 68.352C201.855 69.1373 201.483 70.3153 201.483 71.886C201.483 75.1927 202.867 76.846 205.637 76.846ZM228.819 50H234.523V52.046C236.3 51.054 237.912 50.3513 239.359 49.938C240.806 49.5247 242.335 49.318 243.947 49.318C246.551 49.318 248.597 49.8347 250.085 50.868C251.573 51.9013 252.627 53.5133 253.247 55.704C253.867 57.8533 254.177 60.788 254.177 64.508V81H248.411V64.632C248.411 62.028 248.246 60.0233 247.915 58.618C247.626 57.1713 247.047 56.138 246.179 55.518C245.352 54.8567 244.133 54.526 242.521 54.526C240.33 54.526 238.036 55.0013 235.639 55.952L234.585 56.448V81H228.819V50ZM272.345 81.682C270.155 81.682 268.439 81.3307 267.199 80.628C266.001 79.9253 265.133 78.7473 264.595 77.094C264.058 75.4407 263.789 73.1467 263.789 70.212V54.96H259.635V50H263.789V40.762H269.555V50H278.669V54.96H269.555V69.158C269.555 71.1007 269.617 72.568 269.741 73.56C269.907 74.5107 270.258 75.2547 270.795 75.792C271.333 76.288 272.201 76.536 273.399 76.536L278.669 76.226L279.041 80.938C276.148 81.434 273.916 81.682 272.345 81.682ZM285.705 54.96H281.985V50H285.705V47.644C285.705 44.668 285.973 42.374 286.511 40.762C287.048 39.1087 287.916 37.9307 289.115 37.228C290.355 36.5253 292.07 36.174 294.261 36.174L300.771 36.67L300.709 41.444C295.914 41.32 294.013 41.258 295.005 41.258C293.682 41.258 292.752 41.8367 292.215 42.994C291.719 44.11 291.471 45.6807 291.471 47.706V50H300.027V54.96H291.471V81H285.705V54.96ZM317.078 81.682C312.242 81.682 308.77 80.4007 306.662 77.838C304.554 75.234 303.5 71.1627 303.5 65.624C303.5 59.9613 304.575 55.828 306.724 53.224C308.874 50.62 312.325 49.318 317.078 49.318C321.873 49.318 325.324 50.6407 327.432 53.286C329.582 55.89 330.656 60.0027 330.656 65.624C330.656 71.1213 329.602 75.172 327.494 77.776C325.386 80.38 321.914 81.682 317.078 81.682ZM317.078 76.66C319.062 76.66 320.592 76.3087 321.666 75.606C322.782 74.9033 323.568 73.7667 324.022 72.196C324.477 70.6253 324.704 68.4347 324.704 65.624C324.704 62.6893 324.456 60.416 323.96 58.804C323.506 57.192 322.72 56.0553 321.604 55.394C320.53 54.6913 319.021 54.34 317.078 54.34C315.136 54.34 313.606 54.6913 312.49 55.394C311.374 56.0553 310.568 57.2127 310.072 58.866C309.618 60.478 309.39 62.7307 309.39 65.624C309.39 68.3933 309.618 70.584 310.072 72.196C310.527 73.7667 311.312 74.9033 312.428 75.606C313.544 76.3087 315.094 76.66 317.078 76.66ZM337.743 50H343.447V53.906C347.126 51.55 350.763 50.0207 354.359 49.318V55.146C352.747 55.4767 351.073 55.9313 349.337 56.51C347.601 57.0887 346.154 57.6467 344.997 58.184L343.509 58.866V81H337.743V50ZM359.661 50H365.365V52.046C366.935 51.1367 368.423 50.4547 369.829 50C371.234 49.5453 372.681 49.318 374.169 49.318C375.781 49.318 377.269 49.5867 378.633 50.124C379.997 50.62 381.071 51.3847 381.857 52.418C383.51 51.5087 385.308 50.7647 387.251 50.186C389.235 49.6073 391.239 49.318 393.265 49.318C395.827 49.318 397.832 49.8347 399.279 50.868C400.725 51.9013 401.759 53.5133 402.379 55.704C402.999 57.8947 403.309 60.8293 403.309 64.508V81H397.543V64.632C397.543 62.028 397.377 60.0233 397.047 58.618C396.757 57.1713 396.199 56.138 395.373 55.518C394.587 54.8567 393.409 54.526 391.839 54.526C390.681 54.526 389.483 54.6707 388.243 54.96C387.003 55.208 385.907 55.5387 384.957 55.952L383.841 56.448C384.295 58.2253 384.523 61.036 384.523 64.88V81H378.695V65.004C378.695 62.2347 378.55 60.1267 378.261 58.68C377.971 57.192 377.413 56.138 376.587 55.518C375.801 54.8567 374.623 54.526 373.053 54.526C371.895 54.526 370.697 54.6707 369.457 54.96C368.258 55.2493 367.245 55.58 366.419 55.952L365.427 56.448V81H359.661V50Z"/>
<circle cx="97.5" cy="100.5" r="12.5" fill="#03D1EB"/>
<path fill-rule="evenodd" clip-rule="evenodd" d="M80 63C80 79.5685 66.5685 93 50 93C33.4315 93 20 79.5685 20 63C20 46.4315 33.4315 33 50 33C66.5685 33 80 46.4315 80 63ZM75.202 106.193C67.8022 110.52 59.1907 113 50 113C22.3858 113 0 90.6142 0 63C0 35.3858 22.3858 13 50 13C77.6142 13 100 35.3858 100 63C100 68.2652 99.1862 73.3403 97.6774 78.1065C84.9592 79.2781 75 89.976 75 103C75 104.082 75.0687 105.148 75.202 106.193Z" fill="#03D1EB"/>
</svg>
