<svg width="420" height="133" viewBox="0 0 420 133" fill="none" xmlns="http://www.w3.org/2000/svg">
<circle cx="50" cy="68" r="40" fill="black" stroke="#03D1EB" stroke-width="20"/>
<circle cx="100" cy="108" r="25" fill="black"/>
<circle cx="97.5" cy="105.5" r="12.5" fill="#03D1EB"/>
<path d="M153.616 81.656C152.08 82.3813 150.629 82.8933 149.264 83.192C147.899 83.5333 146.448 83.704 144.912 83.704C140.688 83.704 137.637 82.424 135.76 79.864C133.883 77.304 132.944 73.0587 132.944 67.128C132.944 62.9467 133.435 59.64 134.416 57.208C135.397 54.776 136.997 53.0267 139.216 51.96C141.435 50.8507 144.464 50.296 148.304 50.296L159.568 51V96.952H153.616V81.656ZM146.256 78.328C148.304 78.328 150.416 77.944 152.592 77.176L153.616 76.792V55.864C151.312 55.608 149.541 55.48 148.304 55.48C145.915 55.48 144.037 55.8853 142.672 56.696C141.307 57.5067 140.347 58.7653 139.792 60.472C139.237 62.136 138.96 64.376 138.96 67.192C138.96 71.2453 139.515 74.1253 140.624 75.832C141.733 77.496 143.611 78.328 146.256 78.328ZM178.528 83.704C175.755 83.704 173.621 83.192 172.128 82.168C170.635 81.1013 169.589 79.4373 168.992 77.176C168.395 74.872 168.096 71.7147 168.096 67.704V51H174.048V67.704C174.048 70.648 174.197 72.8667 174.496 74.36C174.795 75.8107 175.349 76.8347 176.16 77.432C177.013 78.0293 178.293 78.328 180 78.328C181.408 78.328 182.731 78.1573 183.968 77.816C185.248 77.4747 186.613 76.984 188.064 76.344V51H194.016V83H188.064V80.888C186.272 81.912 184.651 82.6373 183.2 83.064C181.792 83.4907 180.235 83.704 178.528 83.704ZM210.086 83.704C207.056 83.704 204.752 82.8507 203.174 81.144C201.595 79.4373 200.806 76.984 200.806 73.784C200.806 70.6267 201.616 68.3227 203.238 66.872C204.859 65.3787 207.44 64.4613 210.982 64.12L220.07 63.288V60.792C220.07 58.9147 219.664 57.5707 218.854 56.76C218.043 55.9067 216.848 55.48 215.27 55.48C211.686 55.48 207.547 55.736 202.854 56.248L202.661 51.896C207.184 50.8293 211.387 50.296 215.27 50.296C219.024 50.296 221.755 51.1493 223.462 52.856C225.168 54.52 226.022 57.1653 226.022 60.792V76.216C226.107 77.0693 226.384 77.7307 226.854 78.2C227.366 78.6267 228.155 78.9253 229.222 79.096L229.03 83.704C227.195 83.704 225.638 83.4907 224.358 83.064C223.078 82.68 221.947 82.0613 220.966 81.208C217.339 82.872 213.712 83.704 210.086 83.704ZM211.174 78.712C213.776 78.712 216.294 78.3067 218.726 77.496L220.07 77.048V67.64L211.75 68.408C210.086 68.5787 208.848 69.0907 208.038 69.944C207.27 70.7547 206.885 71.9707 206.885 73.592C206.885 77.0053 208.315 78.712 211.174 78.712ZM235.104 51H240.992V53.112C242.826 52.088 244.49 51.3627 245.984 50.936C247.477 50.5093 249.056 50.296 250.72 50.296C253.408 50.296 255.52 50.8293 257.056 51.896C258.592 52.9627 259.68 54.6267 260.32 56.888C260.96 59.1067 261.28 62.136 261.28 65.976V83H255.328V66.104C255.328 63.416 255.157 61.3467 254.816 59.896C254.517 58.4027 253.92 57.336 253.024 56.696C252.17 56.0133 250.912 55.672 249.248 55.672C246.986 55.672 244.618 56.1627 242.144 57.144L241.056 57.656V83H235.104V51ZM280.034 83.704C277.773 83.704 276.002 83.3413 274.722 82.616C273.485 81.8907 272.589 80.6747 272.034 78.968C271.479 77.2613 271.202 74.8933 271.202 71.864V56.12H266.914V51H271.202V41.464H277.154V51H286.562V56.12H277.154V70.776C277.154 72.7813 277.218 74.296 277.346 75.32C277.517 76.3013 277.879 77.0693 278.434 77.624C278.989 78.136 279.885 78.392 281.122 78.392L286.562 78.072L286.946 82.936C283.959 83.448 281.655 83.704 280.034 83.704ZM293.824 56.12H289.984V51H293.824V48.568C293.824 45.496 294.101 43.128 294.656 41.464C295.211 39.7573 296.107 38.5413 297.344 37.816C298.624 37.0907 300.395 36.728 302.656 36.728L309.376 37.24L309.312 42.168C304.363 42.04 302.4 41.976 303.424 41.976C302.059 41.976 301.099 42.5733 300.544 43.768C300.032 44.92 299.776 46.5413 299.776 48.632V51H308.608V56.12H299.776V83H293.824V56.12ZM326.21 83.704C321.218 83.704 317.634 82.3813 315.458 79.736C313.282 77.048 312.194 72.8453 312.194 67.128C312.194 61.2827 313.303 57.016 315.522 54.328C317.741 51.64 321.303 50.296 326.21 50.296C331.159 50.296 334.722 51.6613 336.898 54.392C339.117 57.08 340.226 61.3253 340.226 67.128C340.226 72.8027 339.138 76.984 336.962 79.672C334.786 82.36 331.202 83.704 326.21 83.704ZM326.21 78.52C328.258 78.52 329.837 78.1573 330.946 77.432C332.098 76.7067 332.909 75.5333 333.378 73.912C333.847 72.2907 334.082 70.0293 334.082 67.128C334.082 64.0987 333.826 61.752 333.314 60.088C332.845 58.424 332.034 57.2507 330.882 56.568C329.773 55.8427 328.215 55.48 326.21 55.48C324.205 55.48 322.626 55.8427 321.474 56.568C320.322 57.2507 319.49 58.4453 318.978 60.152C318.509 61.816 318.274 64.1413 318.274 67.128C318.274 69.9867 318.509 72.248 318.978 73.912C319.447 75.5333 320.258 76.7067 321.41 77.432C322.562 78.1573 324.162 78.52 326.21 78.52ZM347.541 51H353.429V55.032C357.226 52.6 360.981 51.0213 364.693 50.296V56.312C363.029 56.6533 361.301 57.1227 359.509 57.72C357.717 58.3173 356.224 58.8933 355.029 59.448L353.493 60.152V83H347.541V51ZM370.166 51H376.054V53.112C377.675 52.1733 379.211 51.4693 380.662 51C382.113 50.5307 383.606 50.296 385.142 50.296C386.806 50.296 388.342 50.5733 389.75 51.128C391.158 51.64 392.267 52.4293 393.078 53.496C394.785 52.5573 396.641 51.7893 398.646 51.192C400.694 50.5947 402.763 50.296 404.854 50.296C407.499 50.296 409.569 50.8293 411.062 51.896C412.555 52.9627 413.622 54.6267 414.262 56.888C414.902 59.1493 415.222 62.1787 415.222 65.976V83H409.27V66.104C409.27 63.416 409.099 61.3467 408.758 59.896C408.459 58.4027 407.883 57.336 407.03 56.696C406.219 56.0133 405.003 55.672 403.382 55.672C402.187 55.672 400.95 55.8213 399.67 56.12C398.39 56.376 397.259 56.7173 396.278 57.144L395.126 57.656C395.595 59.4907 395.83 62.392 395.83 66.36V83H389.814V66.488C389.814 63.6293 389.665 61.4533 389.366 59.96C389.067 58.424 388.491 57.336 387.638 56.696C386.827 56.0133 385.611 55.672 383.99 55.672C382.795 55.672 381.558 55.8213 380.278 56.12C379.041 56.4187 377.995 56.76 377.142 57.144L376.118 57.656V83H370.166V51Z" fill="white"/>
</svg>
