<svg width="353" height="78" viewBox="0 0 353 78" fill="none" xmlns="http://www.w3.org/2000/svg">
<path d="M115.6 59.4L115.65 47.75C114.65 48.8167 113.5 49.6833 112.2 50.35C110.9 50.9833 109.417 51.3 107.75 51.3C105.75 51.3 104.033 50.75 102.6 49.65C101.2 48.55 100.117 47.0333 99.35 45.1C98.6167 43.1333 98.25 40.9 98.25 38.4C98.25 35.7667 98.6833 33.4333 99.55 31.4C100.45 29.3667 101.867 27.7667 103.8 26.6C105.767 25.4 108.317 24.8 111.45 24.8C112.483 24.8 113.6 24.8333 114.8 24.9C116 24.9667 117.217 25.1 118.45 25.3C119.683 25.5 120.85 25.7833 121.95 26.15V59.4H115.6ZM109.9 46.45C111.2 46.45 112.283 46.2 113.15 45.7C114.017 45.1667 114.85 44.4 115.65 43.4V30.15C114.683 29.8833 113.867 29.7167 113.2 29.65C112.533 29.55 111.8 29.5 111 29.5C109.633 29.5 108.483 29.8333 107.55 30.5C106.617 31.1667 105.917 32.15 105.45 33.45C105.017 34.75 104.8 36.3667 104.8 38.3C104.8 40.9667 105.217 43 106.05 44.4C106.883 45.7667 108.167 46.45 109.9 46.45ZM111.65 59.4V56.5C111.65 56.0333 111.783 55.6833 112.05 55.45C112.317 55.2167 112.667 55.05 113.1 54.95L116 54.35L116.6 59.4H111.65ZM120.5 59.4L121.15 54.35L124 54.95C124.467 55.05 124.817 55.2167 125.05 55.45C125.317 55.6833 125.45 56.0333 125.45 56.5V59.4H120.5ZM138.947 51.4C137.08 51.4 135.497 50.9833 134.197 50.15C132.897 49.2833 131.914 48.1333 131.247 46.7C130.58 45.2333 130.247 43.55 130.247 41.65V25.3H136.597V41.65C136.597 43.2167 136.947 44.4333 137.647 45.3C138.347 46.1333 139.414 46.55 140.847 46.55C141.914 46.55 142.897 46.3167 143.797 45.85C144.697 45.3833 145.564 44.7333 146.397 43.9V25.3H152.697V51H148.847C147.98 51 147.447 50.6167 147.247 49.85L146.847 47.85C145.78 48.8833 144.614 49.7333 143.347 50.4C142.08 51.0667 140.614 51.4 138.947 51.4ZM151.497 51L152.147 45.95L154.997 46.55C155.464 46.65 155.814 46.8167 156.047 47.05C156.314 47.2833 156.447 47.6333 156.447 48.1V51H151.497ZM131.447 25.3L130.847 30.35L127.947 29.75C127.514 29.65 127.164 29.4833 126.897 29.25C126.63 29.0167 126.497 28.6667 126.497 28.2V25.3H131.447ZM147.597 25.3L146.947 30.35L144.097 29.75C143.63 29.65 143.264 29.4833 142.997 29.25C142.764 29.0167 142.647 28.6667 142.647 28.2V25.3H147.597ZM166.153 51.4C164.686 51.4 163.386 51.1333 162.253 50.6C161.119 50.0667 160.236 49.2833 159.603 48.25C158.969 47.2167 158.653 45.9333 158.653 44.4C158.653 43.4667 158.903 42.5333 159.403 41.6C159.936 40.6333 160.786 39.7667 161.953 39C163.153 38.2667 164.736 37.65 166.703 37.15C168.669 36.6167 171.103 36.3167 174.003 36.25V34.8C174.003 33.0667 173.636 31.8 172.903 31C172.203 30.1667 171.169 29.75 169.803 29.75C168.836 29.75 167.936 29.95 167.103 30.35C166.303 30.7167 165.553 31.1 164.853 31.5C164.186 31.8667 163.536 32.05 162.903 32.05C162.469 32.05 162.086 31.9333 161.753 31.7C161.453 31.4667 161.219 31.2 161.053 30.9L159.903 28.9C161.403 27.5333 163.036 26.5167 164.803 25.85C166.603 25.1833 168.536 24.85 170.603 24.85C172.603 24.85 174.319 25.2667 175.753 26.1C177.186 26.9333 178.286 28.1 179.053 29.6C179.819 31.1 180.203 32.8333 180.203 34.8V51H177.353C176.719 51 176.236 50.9167 175.903 50.75C175.603 50.5833 175.353 50.2167 175.153 49.65L174.653 47.85C173.353 48.9833 172.053 49.8667 170.753 50.5C169.486 51.1 167.953 51.4 166.153 51.4ZM168.153 47.1C169.353 47.1 170.403 46.8833 171.303 46.45C172.236 45.9833 173.136 45.3 174.003 44.4V40.1C172.536 40.1333 171.219 40.25 170.053 40.45C168.919 40.6167 167.953 40.8667 167.153 41.2C166.386 41.5 165.786 41.9 165.353 42.4C164.953 42.8667 164.753 43.4333 164.753 44.1C164.753 45.2 165.053 45.9833 165.653 46.45C166.286 46.8833 167.119 47.1 168.153 47.1ZM178.953 51L179.603 45.95L182.503 46.55C182.936 46.65 183.286 46.8167 183.553 47.05C183.819 47.2833 183.953 47.6333 183.953 48.1V51H178.953ZM189.893 51V25.3H193.743C194.61 25.3 195.143 25.6833 195.343 26.45L195.743 28.5C196.81 27.4 197.976 26.5333 199.243 25.9C200.51 25.2333 201.993 24.9 203.693 24.9C205.56 24.9 207.126 25.3167 208.393 26.15C209.693 26.9833 210.676 28.1333 211.343 29.6C212.01 31.0667 212.343 32.75 212.343 34.65V51H205.993V34.65C205.993 33.1167 205.643 31.9167 204.943 31.05C204.243 30.1833 203.176 29.75 201.743 29.75C200.71 29.75 199.726 30 198.793 30.5C197.893 30.9667 197.026 31.6167 196.193 32.45V51H189.893ZM186.143 51V48.1C186.143 47.6333 186.26 47.2833 186.493 47.05C186.76 46.8167 187.126 46.65 187.593 46.55L190.443 45.95L191.093 51H186.143ZM194.993 51L195.643 45.95L198.493 46.55C198.96 46.65 199.31 46.8167 199.543 47.05C199.81 47.2833 199.943 47.6333 199.943 48.1V51H194.993ZM211.143 51L211.743 45.95L214.643 46.55C215.076 46.65 215.426 46.8167 215.693 47.05C215.96 47.2833 216.093 47.6333 216.093 48.1V51H211.143ZM191.093 25.3L190.443 30.35L187.593 29.75C187.126 29.65 186.76 29.4833 186.493 29.25C186.26 29.0167 186.143 28.6667 186.143 28.2V25.3H191.093ZM228.272 51.4C226.039 51.4 224.305 50.7667 223.072 49.5C221.872 48.2333 221.272 46.4833 221.272 44.25V29.95H218.672C218.339 29.95 218.055 29.85 217.822 29.65C217.589 29.45 217.472 29.1333 217.472 28.7V26.2L221.622 25.5L222.922 18.55C223.055 17.85 223.522 17.5 224.322 17.5H227.572V25.55H234.322V29.95H227.572V43.85C227.572 44.65 227.772 45.2833 228.172 45.75C228.572 46.1833 229.105 46.4 229.772 46.4C230.139 46.4 230.472 46.3333 230.772 46.2C231.072 46.0333 231.355 45.8833 231.622 45.75C231.889 45.6167 232.122 45.55 232.322 45.55C232.622 45.55 232.889 45.7333 233.122 46.1L235.022 49.15C234.122 49.85 233.089 50.4 231.922 50.8C230.755 51.2 229.539 51.4 228.272 51.4ZM241.264 51V30L239.114 29.65C238.647 29.55 238.247 29.3833 237.914 29.15C237.614 28.9167 237.464 28.5667 237.464 28.1V25.55H241.264V23.65C241.264 20.7167 242.13 18.4167 243.864 16.75C245.63 15.05 247.997 14.2 250.964 14.2C251.564 14.2 252.13 14.25 252.664 14.35C253.197 14.4167 253.73 14.5333 254.264 14.7L254.114 17.8C254.08 18.2 253.93 18.4833 253.664 18.65C253.397 18.8167 253.13 18.9 252.864 18.9C252.73 18.9 252.597 18.9 252.464 18.9C252.33 18.9 252.18 18.9 252.014 18.9C250.48 18.9 249.33 19.2833 248.564 20.05C247.797 20.7833 247.414 22.0667 247.414 23.9V25.55H254.014V29.95H247.614V51H241.264ZM237.514 51V48.1C237.514 47.6333 237.647 47.2833 237.914 47.05C238.18 46.8167 238.53 46.65 238.964 46.55L241.864 45.95L242.464 51H237.514ZM246.414 51L247.064 45.95L249.914 46.55C250.38 46.65 250.73 46.8167 250.964 47.05C251.23 47.2833 251.364 47.6333 251.364 48.1V51H246.414ZM269.351 24.9C271.951 24.9 274.201 25.45 276.101 26.55C278.001 27.6167 279.467 29.15 280.501 31.15C281.534 33.1167 282.051 35.4333 282.051 38.1C282.051 40.7667 281.534 43.1 280.501 45.1C279.467 47.0667 278.001 48.6167 276.101 49.75C274.201 50.85 271.951 51.4 269.351 51.4C266.784 51.4 264.534 50.85 262.601 49.75C260.701 48.6167 259.217 47.0667 258.151 45.1C257.084 43.1 256.551 40.7667 256.551 38.1C256.551 35.4333 257.084 33.1167 258.151 31.15C259.217 29.15 260.701 27.6167 262.601 26.55C264.534 25.45 266.784 24.9 269.351 24.9ZM269.351 46.6C271.451 46.6 273.001 45.8833 274.001 44.45C275.001 43.0167 275.501 40.9167 275.501 38.15C275.501 36.2833 275.284 34.7333 274.851 33.5C274.417 32.2333 273.734 31.2833 272.801 30.65C271.901 30.0167 270.751 29.7 269.351 29.7C267.951 29.7 266.784 30.0333 265.851 30.7C264.917 31.3333 264.217 32.2833 263.751 33.55C263.317 34.7833 263.101 36.3167 263.101 38.15C263.101 40.85 263.601 42.9333 264.601 44.4C265.634 45.8667 267.217 46.6 269.351 46.6ZM288.428 51V25.3H292.128C292.795 25.3 293.245 25.4333 293.478 25.7C293.745 25.9333 293.928 26.3333 294.028 26.9L294.378 29.95C295.311 28.35 296.378 27.1 297.578 26.2C298.811 25.3 300.195 24.85 301.728 24.85C302.361 24.85 302.928 24.9333 303.428 25.1C303.961 25.2333 304.428 25.4333 304.828 25.7L304.028 30.4C303.995 30.7 303.878 30.9167 303.678 31.05C303.511 31.15 303.295 31.2 303.028 31.2C302.861 31.2 302.478 31.15 301.878 31.05C301.278 30.95 300.745 30.9 300.278 30.9C299.011 30.9 297.928 31.25 297.028 31.95C296.128 32.65 295.361 33.6667 294.728 35V51H288.428ZM293.528 51L294.178 45.95L297.028 46.55C297.495 46.65 297.845 46.8167 298.078 47.05C298.345 47.2833 298.478 47.6333 298.478 48.1V51H293.528ZM284.678 51V48.1C284.678 47.6333 284.795 47.2833 285.028 47.05C285.295 46.8167 285.661 46.65 286.128 46.55L288.978 45.95L289.628 51H284.678ZM289.628 25.3L288.978 30.35L286.128 29.75C285.661 29.65 285.295 29.4833 285.028 29.25C284.795 29.0167 284.678 28.6667 284.678 28.2V25.3H289.628ZM310.352 51V25.3H314.202C315.035 25.3 315.569 25.6833 315.802 26.45L316.202 28.35C317.102 27.3833 318.102 26.5667 319.202 25.9C320.302 25.2333 321.602 24.9 323.102 24.9C324.735 24.9 326.069 25.35 327.102 26.25C328.135 27.1167 328.902 28.2667 329.402 29.7C330.202 28.0333 331.352 26.8167 332.852 26.05C334.352 25.2833 335.952 24.9 337.652 24.9C340.519 24.9 342.702 25.7667 344.202 27.5C345.735 29.2333 346.502 31.6167 346.502 34.65V51H340.202V34.65C340.202 33.05 339.852 31.8333 339.152 31C338.452 30.1667 337.402 29.75 336.002 29.75C334.769 29.75 333.719 30.1833 332.852 31.05C332.019 31.9167 331.602 33.1167 331.602 34.65V51H325.252V34.65C325.252 32.95 324.902 31.7167 324.202 30.95C323.535 30.15 322.552 29.75 321.252 29.75C320.352 29.75 319.519 29.9833 318.752 30.45C318.019 30.8833 317.319 31.4667 316.652 32.2V51H310.352ZM306.602 51V48.1C306.602 47.6333 306.719 47.2833 306.952 47.05C307.219 46.8167 307.585 46.65 308.052 46.55L310.902 45.95L311.552 51H306.602ZM315.452 51L316.102 45.95L318.952 46.55C319.419 46.65 319.769 46.8167 320.002 47.05C320.269 47.2833 320.402 47.6333 320.402 48.1V51H315.452ZM330.402 51L331.002 45.95L333.902 46.55C334.335 46.65 334.685 46.8167 334.952 47.05C335.219 47.2833 335.352 47.6333 335.352 48.1V51H330.402ZM311.552 25.3L310.902 30.35L308.052 29.75C307.585 29.65 307.219 29.4833 306.952 29.25C306.719 29.0167 306.602 28.6667 306.602 28.2V25.3H311.552ZM345.302 51L345.952 45.95L348.802 46.55C349.269 46.65 349.619 46.8167 349.852 47.05C350.119 47.2833 350.252 47.6333 350.252 48.1V51H345.302Z" fill="#03D0EB"/>
<path d="M39.3972 17.3699L30.5493 8.72667L39.3972 0L48.324 8.72346L39.3972 17.3699ZM61.0198 38.5L45.7862 53.3867L54.7096 62.1133L78.7945 38.5L48.324 8.72346L39.3972 17.3699L61.0198 38.5ZM48.324 68.2765L33.0871 53.3867L24.1636 62.1133L39.3972 77.0738L48.324 68.2765ZM17.7747 38.5L39.3972 17.3699L30.5493 8.72667L-4.23092e-06 38.5L24.1636 62.1133L33.0871 53.3867L17.7747 38.5ZM30.546 38.5L45.7862 53.3867L54.7096 44.6664L39.3972 29.7765L30.5493 38.5H30.546Z" fill="#03D0EB"/>
</svg>
