<svg version="1.1" xmlns="http://www.w3.org/2000/svg" viewBox="0 0 785.615234375 205.568359375" width="1571.23046875" height="411.13671875" filter="invert(93%) hue-rotate(180deg)">
  <!-- svg-source:excalidraw -->
  
  <defs>
    <style class="style-fonts">
      @font-face {
        font-family: "Virgil";
        src: url("https://excalidraw.com/Virgil.woff2");
      }
      @font-face {
        font-family: "Cascadia";
        src: url("https://excalidraw.com/Cascadia.woff2");
      }
    </style>
  </defs>
  <g stroke-linecap="round" transform="translate(10 10) rotate(0 179.517578125 92.634765625)"><path d="M-0.69 1.08 C84.46 -1.55, 170.83 -1.97, 359.21 -0.02 M0.28 -0.56 C108.72 -2.12, 216.62 -2.27, 359.58 0.57 M357.28 1.64 C356.45 69.66, 358.79 139.3, 358.83 185.33 M359.87 -0.1 C360.49 45.7, 360.16 91.4, 358.1 185.49 M359.35 185.44 C247.44 184.61, 135.42 186.02, -0.48 186.25 M358.81 185.28 C285.69 185.46, 211.73 185.17, -0.43 185.66 M-1.17 185.85 C-2.55 145.97, -3.65 103.39, 1.42 -1.36 M0.02 185.67 C-1.89 148.76, -0.57 110.84, -0.62 0.24" stroke="#000000" stroke-width="1" fill="none"></path></g><g stroke-linecap="round" transform="translate(416.580078125 10.298828125) rotate(0 179.517578125 92.634765625)"><path d="M0.73 -0.42 C122.74 1.25, 248.54 1.78, 359.62 0.12 M0.46 -0.51 C114.63 1.04, 229.72 0.3, 359.33 0.34 M357.84 0.91 C357.75 38.3, 359 79.44, 359.95 184.38 M358.8 -0.57 C360.63 70.58, 360.23 139.23, 358.96 185.04 M360.16 185.63 C280.23 186.56, 201.63 187.67, -0.25 186.05 M359.24 184.8 C236.77 185.27, 115.55 186.33, 0.14 185.53 M-0.83 187.19 C-1.97 147.25, -1.35 106.08, -0.43 1.37 M-0.28 184.75 C0.41 111.91, 1.15 39.8, 0.81 0.57" stroke="#000000" stroke-width="1" fill="none"></path></g></svg>